# xmcd
#
# Track frame offsets: 
#        150
#        9620
#        21684
#        32291
#        42432
#        56025
#        68964
#        81448
#        92348
#        104290
#        114376
#        126864
#        135303
#        146499
#        155374
#        172125
#        184674
#        199620
#        208385
#
# Disc length: 3012 seconds
#
# Revision: 0
# Processed by: cddbd v1.5.2PL0 Copyright (c) Steve Scherf et al.
# Submitted via: ExactAudioCopyFreeDBPlugin 1.0
#
DISCID=0d0bc213
DTITLE=stare dobre malzenstwo - czarny blues o czwartej nad ranem
DYEAR=1900
DGENRE=Ballad
TTITLE0=Nieokreślony twórca - spoznione wyznanie
TTITLE1=Nieokreślony twórca - ballada z gor
TTITLE2=Nieokreślony twórca - wojtka belona ostatnia ziemska podroz do
TTITLE2=wlodawy
TTITLE3=Nieokreślony twórca - ballada majowa
TTITLE4=Nieokreślony twórca - przy ognisku nad szczawniczkiem
TTITLE5=Nieokreślony twórca - malinowe lato
TTITLE6=Nieokreślony twórca - zwozka nieba
TTITLE7=Nieokreślony twórca - list do malego ksiecia
TTITLE8=Nieokreślony twórca - ballada o poecie
TTITLE9=Nieokreślony twórca - przechyla sie ku jesieni zima
TTITLE10=Nieokreślony twórca - z synem w oknie
TTITLE11=Nieokreślony twórca - wchodzenie do zimy
TTITLE12=Nieokreślony twórca - wysockiemu
TTITLE13=Nieokreślony twórca - zapomniany grajek
TTITLE14=Nieokreślony twórca - zawirowal swiat
TTITLE15=Nieokreślony twórca - wygladaja przez okno
TTITLE16=Nieokreślony twórca - czarny blues o czwartej nad ranem
TTITLE17=Nieokreślony twórca - rozliczysz mnie panie
TTITLE18=Nieokreślony twórca - blues dla malej
EXTD=
EXTT0=
EXTT1=
EXTT2=
EXTT3=
EXTT4=
EXTT5=
EXTT6=
EXTT7=
EXTT8=
EXTT9=
EXTT10=
EXTT11=
EXTT12=
EXTT13=
EXTT14=
EXTT15=
EXTT16=
EXTT17=
EXTT18=
PLAYORDER=
